<svg width="144" height="163" viewBox="0 0 144 163" fill="none" xmlns="http://www.w3.org/2000/svg">
<g clip-path="url(#clip0_202_26)">
<path d="M65.657 160.692L45.886 148.939C43.77 147.822 43.583 146.953 45.326 146.326C48.31 145.333 51.294 143.967 54.279 142.224C54.773 141.978 55.272 142.036 55.771 142.411L71.066 151.364C71.687 151.737 72.306 151.737 72.93 151.364L132.246 117.042C132.866 116.795 133.178 116.297 133.178 115.552V46.91C133.178 46.163 132.866 45.602 132.246 45.23L72.93 10.908C72.306 10.535 71.686 10.535 71.066 10.908L11.565 45.23C10.94 45.602 10.632 46.163 10.632 46.91V115.552C10.632 116.297 10.941 116.795 11.565 117.042L27.979 126.558C32.332 128.421 35.781 128.61 38.331 127.115C40.878 125.625 42.155 123.45 42.155 120.587V52.689C42.155 51.572 42.715 51.013 43.834 51.013H51.482C52.6 51.013 53.161 51.572 53.161 52.689V120.585C53.161 126.434 51.603 130.971 48.497 134.204C45.388 137.436 41.036 139.054 35.441 139.054C31.459 139.054 26.92 137.811 21.824 135.322L6.155 126.369C2.053 124.01 0 120.401 0 115.551V46.91C0 42.058 2.053 38.453 6.155 36.091L65.657 1.77C69.884 -0.59 74.052 -0.59 78.155 1.77L137.657 36.091C141.884 38.453 144 42.059 144 46.91V115.552C144 120.402 141.884 124.011 137.657 126.369L78.341 160.692C76.351 161.809 74.238 162.371 72 162.371C69.762 162.371 67.646 161.809 65.657 160.692ZM74.425 113.22C70.07 111.912 66.839 110.11 64.725 107.809C62.609 105.509 61.087 103.178 60.155 100.817C59.222 98.454 58.756 95.903 58.756 93.168C58.756 92.046 59.377 91.489 60.621 91.489H68.268C69.263 91.489 69.823 91.925 69.948 92.796C70.568 97.023 72.247 100.068 74.984 101.935C77.718 103.799 82.818 104.733 90.279 104.733C96.495 104.733 101.033 103.961 103.895 102.402C106.753 100.848 108.186 98.455 108.186 95.221C108.186 93.727 107.813 92.513 107.066 91.584C106.32 90.65 104.362 89.75 101.191 88.877C98.019 88.008 93.325 87.263 87.109 86.639C78.154 85.772 71.533 84.027 67.244 81.417C62.953 78.804 60.809 74.455 60.809 68.358C60.809 62.39 63.201 57.699 67.99 54.275C72.776 50.856 79.397 49.147 87.855 49.147C97.429 49.147 104.642 50.856 109.491 54.275C114.341 57.699 117.014 62.95 117.512 70.039C117.635 70.535 117.512 70.972 117.139 71.344C116.766 71.717 116.329 71.906 115.834 71.906H108.187C107.189 71.906 106.63 71.47 106.508 70.598C105.512 66.494 103.678 63.633 101.006 62.018C98.331 60.404 93.946 59.592 87.856 59.592C77.658 59.592 72.561 62.391 72.561 67.987C72.561 69.606 72.995 70.785 73.867 71.529C74.736 72.279 76.571 72.996 79.369 73.675C82.167 74.361 86.674 75.138 92.892 76.006C102.715 77.378 109.68 79.303 113.784 81.79C117.888 84.277 119.939 88.57 119.939 94.66C119.939 101.126 117.357 106.164 112.198 109.768C107.037 113.376 99.73 115.177 90.281 115.177C84.059 115.177 78.775 114.526 74.425 113.22Z" fill="currentColor"/>
</g>
<defs>
<clipPath id="clip0_202_26">
<rect width="144" height="163" fill="white"/>
</clipPath>
</defs>
</svg>
