<svg width="2222" height="2500" viewBox="0 0 2222 2500" fill="none" xmlns="http://www.w3.org/2000/svg">
<g clip-path="url(#clip0_202_33)">
<path fill-rule="evenodd" clip-rule="evenodd" d="M1324.31 286.234L1837.68 582.645C1852.5 566.963 1869.51 553.503 1888.18 542.684C1994.64 481.474 2130.45 517.816 2192.29 624.29C2253.5 730.764 2217.16 866.557 2110.68 928.4C2092.15 939.071 2072.19 947.022 2051.39 952.009V1545.05C2071.96 1550.04 2091.71 1557.94 2110.05 1568.5C2217.16 1630.34 2253.5 1766.15 2191.66 1872.62C2130.45 1979.09 1994.01 2015.43 1887.54 1954.23C1866.91 1942.39 1848.33 1927.31 1832.51 1909.55L1322.26 2204.14C1329.74 2226.77 1333.53 2250.44 1333.5 2274.27C1333.5 2396.68 1234.05 2496.79 1111 2496.79C987.948 2496.79 888.496 2397.32 888.496 2274.27C888.496 2252.4 891.638 2231.27 897.497 2211.32L384.267 1914.99C369.608 1930.37 352.839 1943.57 334.463 1954.23C227.356 2015.43 91.5533 1979.09 30.3442 1872.62C-30.8563 1766.15 5.48556 1630.34 111.951 1568.5C130.292 1557.94 150.042 1550.04 170.608 1545.04V952.009C149.815 947.022 129.847 939.071 111.317 928.4C4.84326 867.2 -31.4986 730.764 29.7106 624.29C90.9197 517.816 227.347 481.474 333.821 542.684C352.387 553.446 369.312 566.819 384.076 582.393L897.593 285.904C891.539 265.358 888.476 244.048 888.496 222.629C888.496 99.5942 987.948 0.125 1111 0.125C1234.05 0.125 1333.5 99.5855 1333.5 222.629C1333.5 244.745 1330.29 266.088 1324.31 286.234ZM1270.83 377.561L1785.42 674.667C1777.23 703.31 1774.88 733.309 1778.51 762.879C1782.14 792.449 1791.69 820.987 1806.57 846.794C1837.9 901.285 1888.93 937.41 1945.56 951.488V1545.27C1942.67 1545.97 1939.8 1546.74 1936.94 1547.56L1264.85 383.507C1266.88 381.563 1268.87 379.584 1270.83 377.57V377.561ZM957.291 383.637L285.206 1547.67C282.3 1546.83 279.377 1546.05 276.439 1545.33V951.488C333.074 937.41 384.102 901.285 415.427 846.794C430.342 820.937 439.895 792.34 443.514 762.71C447.133 733.08 444.745 703.024 436.493 674.337L950.938 377.318C953.012 379.462 955.13 381.571 957.291 383.628V383.637ZM1173.17 436.366L1845.1 1600.14C1829.71 1614.83 1816.52 1631.65 1805.93 1650.11C1795.37 1668.45 1787.47 1688.2 1782.48 1708.76H439.539C434.537 1688.2 426.635 1668.45 416.07 1650.11C405.446 1631.78 392.278 1615.05 376.959 1600.43L1049.02 436.418C1069.17 442.22 1090.03 445.153 1111 445.133C1132.59 445.133 1153.44 442.077 1173.17 436.366ZM1275.55 2124.37L1786.8 1829.2C1785.27 1824.38 1783.9 1819.51 1782.69 1814.6H439.253C438.541 1817.49 437.769 1820.35 436.944 1823.21L950.695 2119.83C971.441 2098.26 996.339 2081.11 1023.89 2069.41C1051.44 2057.72 1081.07 2051.71 1111 2051.77C1141.98 2051.71 1172.62 2058.15 1200.96 2070.65C1229.3 2083.16 1254.71 2101.46 1275.55 2124.37V2124.37Z" fill="#E535AB"/>
</g>
<defs>
<clipPath id="clip0_202_33">
<rect width="2222" height="2500" fill="white"/>
</clipPath>
</defs>
</svg>
