<svg width="2501" height="1505" viewBox="0 0 2501 1505" fill="none" xmlns="http://www.w3.org/2000/svg">
<g clip-path="url(#clip0_202_2)">
<path d="M1250.29 2.57751C916.962 2.57751 708.622 169.247 625.292 502.578C750.292 335.908 896.122 273.408 1062.79 315.078C1157.88 338.847 1225.85 407.841 1301.08 484.199C1423.64 608.603 1565.48 752.578 1875.29 752.578C2208.62 752.578 2416.96 585.908 2500.29 252.578C2375.29 419.247 2229.46 481.747 2062.79 440.078C1967.7 416.308 1899.74 347.314 1824.5 270.956C1701.94 146.552 1560.11 2.57751 1250.29 2.57751ZM625.292 752.578C291.962 752.578 83.6218 919.247 0.291748 1252.58C125.292 1085.91 271.122 1023.41 437.792 1065.08C532.88 1088.85 600.848 1157.84 676.083 1234.2C798.641 1358.6 940.477 1502.58 1250.29 1502.58C1583.62 1502.58 1791.96 1335.91 1875.29 1002.58C1750.29 1169.25 1604.46 1231.75 1437.79 1190.08C1342.7 1166.31 1274.74 1097.31 1199.5 1020.96C1076.94 896.552 935.106 752.578 625.292 752.578Z" fill="url(#paint0_linear_202_2)"/>
</g>
<defs>
<linearGradient id="paint0_linear_202_2" x1="-69.1583" y1="482.578" x2="2090" y2="1727.51" gradientUnits="userSpaceOnUse">
<stop stop-color="#2298BD"/>
<stop offset="1" stop-color="#0ED7B5"/>
</linearGradient>
<clipPath id="clip0_202_2">
<rect width="2500" height="1504" fill="white" transform="translate(0.291748 0.577515)"/>
</clipPath>
</defs>
</svg>
